<svg width="40" height="40" viewBox="0 0 40 40" fill="none" xmlns="http://www.w3.org/2000/svg">
<g filter="url(#filter0_d)">
<rect x="4" width="32" height="32" rx="5" fill="url(#paint0_linear)"/>
<path d="M23.386 18.931C23.518 18.931 23.635 18.982 23.737 19.084L24.691 20.119C24.163 20.773 23.512 21.274 22.738 21.622C21.97 21.97 21.046 22.144 19.966 22.144C19 22.144 18.13 21.979 17.356 21.649C16.588 21.319 15.931 20.86 15.385 20.272C14.839 19.684 14.419 18.982 14.125 18.166C13.837 17.35 13.693 16.459 13.693 15.493C13.693 14.515 13.849 13.621 14.161 12.811C14.473 11.995 14.911 11.293 15.475 10.705C16.045 10.117 16.723 9.661 17.509 9.337C18.295 9.007 19.165 8.842 20.119 8.842C21.067 8.842 21.907 8.998 22.639 9.31C23.377 9.622 24.004 10.03 24.52 10.534L23.71 11.659C23.662 11.731 23.599 11.794 23.521 11.848C23.449 11.902 23.347 11.929 23.215 11.929C23.125 11.929 23.032 11.905 22.936 11.857C22.84 11.803 22.735 11.74 22.621 11.668C22.507 11.59 22.375 11.506 22.225 11.416C22.075 11.326 21.901 11.245 21.703 11.173C21.505 11.095 21.274 11.032 21.01 10.984C20.752 10.93 20.452 10.903 20.11 10.903C19.528 10.903 18.994 11.008 18.508 11.218C18.028 11.422 17.614 11.722 17.266 12.118C16.918 12.508 16.648 12.988 16.456 13.558C16.264 14.122 16.168 14.767 16.168 15.493C16.168 16.225 16.27 16.876 16.474 17.446C16.684 18.016 16.966 18.496 17.32 18.886C17.674 19.276 18.091 19.576 18.571 19.786C19.051 19.99 19.567 20.092 20.119 20.092C20.449 20.092 20.746 20.074 21.01 20.038C21.28 20.002 21.526 19.945 21.748 19.867C21.976 19.789 22.189 19.69 22.387 19.57C22.591 19.444 22.792 19.291 22.99 19.111C23.05 19.057 23.113 19.015 23.179 18.985C23.245 18.949 23.314 18.931 23.386 18.931Z" fill="white"/>
</g>
<defs>
<filter id="filter0_d" x="0" y="0" width="40" height="40" filterUnits="userSpaceOnUse" color-interpolation-filters="sRGB">
<feFlood flood-opacity="0" result="BackgroundImageFix"/>
<feColorMatrix in="SourceAlpha" type="matrix" values="0 0 0 0 0 0 0 0 0 0 0 0 0 0 0 0 0 0 127 0"/>
<feOffset dy="4"/>
<feGaussianBlur stdDeviation="2"/>
<feColorMatrix type="matrix" values="0 0 0 0 0 0 0 0 0 0 0 0 0 0 0 0 0 0 0.25 0"/>
<feBlend mode="normal" in2="BackgroundImageFix" result="effect1_dropShadow"/>
<feBlend mode="normal" in="SourceGraphic" in2="effect1_dropShadow" result="shape"/>
</filter>
<linearGradient id="paint0_linear" x1="32.5" y1="1.5" x2="5.5" y2="31" gradientUnits="userSpaceOnUse">
<stop offset="0.252475" stop-color="#FFC1C1"/>
<stop offset="0.252575" stop-color="#FFC1C1" stop-opacity="0.29"/>
<stop offset="0.253885" stop-color="#929DF8"/>
<stop offset="0.59859" stop-color="#929DF8"/>
<stop offset="0.611054" stop-color="#B28EC2" stop-opacity="0.614519"/>
<stop offset="0.611154" stop-color="#2CD696" stop-opacity="0.767752"/>
<stop offset="0.9999" stop-color="#2CD696"/>
</linearGradient>
</defs>
</svg>
