<svg xmlns="http://www.w3.org/2000/svg" width="29" height="28" fill="none" viewBox="0 0 29 28"><g filter="url(#filter0_d)"><path fill="#000" d="M19.0282 7H9.02819C8.76297 7 8.50862 7.10536 8.32108 7.29289C8.13354 7.48043 8.02819 7.73478 8.02819 8C8.02819 8.26522 8.13354 8.51957 8.32108 8.70711C8.50862 8.89464 8.76297 9 9.02819 9H19.0282C19.2934 9 19.5478 8.89464 19.7353 8.70711C19.9228 8.51957 20.0282 8.26522 20.0282 8C20.0282 7.73478 19.9228 7.48043 19.7353 7.29289C19.5478 7.10536 19.2934 7 19.0282 7ZM15.0282 11H9.02819C8.76297 11 8.50862 11.1054 8.32108 11.2929C8.13354 11.4804 8.02819 11.7348 8.02819 12C8.02819 12.2652 8.13354 12.5196 8.32108 12.7071C8.50862 12.8946 8.76297 13 9.02819 13H15.0282C15.2934 13 15.5478 12.8946 15.7353 12.7071C15.9228 12.5196 16.0282 12.2652 16.0282 12C16.0282 11.7348 15.9228 11.4804 15.7353 11.2929C15.5478 11.1054 15.2934 11 15.0282 11ZM14.0282 0C12.715 0 11.4146 0.258658 10.2014 0.761205C8.9881 1.26375 7.8857 2.00035 6.95712 2.92893C5.08175 4.8043 4.02819 7.34784 4.02819 10C4.01944 12.3091 4.81898 14.5485 6.28819 16.33L4.28819 18.33C4.14943 18.4706 4.05543 18.6492 4.01806 18.8432C3.98068 19.0372 4.00161 19.2379 4.07819 19.42C4.16124 19.5999 4.29589 19.7511 4.46503 19.8544C4.63418 19.9577 4.83019 20.0083 5.02819 20H14.0282C16.6804 20 19.2239 18.9464 21.0993 17.0711C22.9746 15.1957 24.0282 12.6522 24.0282 10C24.0282 7.34784 22.9746 4.8043 21.0993 2.92893C19.2239 1.05357 16.6804 0 14.0282 0ZM14.0282 18H7.43819L8.36819 17.07C8.55444 16.8826 8.65898 16.6292 8.65898 16.365C8.65898 16.1008 8.55444 15.8474 8.36819 15.66C7.05877 14.352 6.24336 12.6305 6.06088 10.7888C5.87839 8.94705 6.34013 7.09901 7.36741 5.55952C8.3947 4.02004 9.92398 2.88436 11.6947 2.34597C13.4654 1.80759 15.368 1.8998 17.0784 2.60691C18.7888 3.31402 20.201 4.59227 21.0746 6.22389C21.9482 7.85551 22.2291 9.73954 21.8693 11.555C21.5096 13.3705 20.5315 15.005 19.1017 16.1802C17.672 17.3554 15.8789 17.9985 14.0282 18Z"/></g><defs><filter id="filter0_d" width="28.028" height="28.001" x="0" y="0" color-interpolation-filters="sRGB" filterUnits="userSpaceOnUse"><feFlood flood-opacity="0" result="BackgroundImageFix"/><feColorMatrix in="SourceAlpha" type="matrix" values="0 0 0 0 0 0 0 0 0 0 0 0 0 0 0 0 0 0 127 0"/><feOffset dy="4"/><feGaussianBlur stdDeviation="2"/><feColorMatrix type="matrix" values="0 0 0 0 0 0 0 0 0 0 0 0 0 0 0 0 0 0 0.25 0"/><feBlend in2="BackgroundImageFix" mode="normal" result="effect1_dropShadow"/><feBlend in="SourceGraphic" in2="effect1_dropShadow" mode="normal" result="shape"/></filter></defs></svg>