<svg xmlns="http://www.w3.org/2000/svg" width="23" height="25" fill="none" viewBox="0 0 23 25"><g filter="url(#filter0_d)"><path fill="#fff" d="M8.33333 8.51831H7.87416C7.24756 8.49566 6.62299 8.60203 6.03921 8.83082C5.45543 9.05961 4.9249 9.40594 4.48055 9.84831L4.35388 9.99608V14.3661H6.50722V11.8855L6.79749 11.5583L6.92944 11.4053C7.61656 10.6993 8.47202 10.1799 9.41527 9.89581C8.94301 9.53646 8.57055 9.06225 8.33333 8.51831V8.51831Z"/><path fill="#fff" d="M18.5406 9.8325C18.0962 9.39013 17.5657 9.0438 16.9819 8.81501C16.3981 8.58622 15.7735 8.47985 15.1469 8.5025C14.9548 8.50304 14.7627 8.51361 14.5717 8.53416C14.33 9.04447 13.9677 9.48827 13.5161 9.82722C14.5231 10.1058 15.4353 10.6531 16.155 11.4106L16.2869 11.5583L16.5719 11.8856V14.3714H18.6514V9.98027L18.5406 9.8325Z"/><path fill="#fff" d="M7.85834 7.48917H8.02195C7.94593 6.83643 8.06046 6.17565 8.35172 5.58657C8.64298 4.9975 9.09851 4.50532 9.66334 4.16944C9.45859 3.85666 9.17613 3.6024 8.8436 3.43158C8.51107 3.26076 8.13987 3.17923 7.76636 3.19497C7.39286 3.21071 7.02984 3.32318 6.71286 3.52137C6.39588 3.71957 6.1358 3.99668 5.9581 4.32559C5.7804 4.65449 5.69116 5.02391 5.69913 5.39766C5.7071 5.77142 5.81199 6.1367 6.00355 6.45773C6.1951 6.77877 6.46674 7.04455 6.79188 7.22906C7.11702 7.41356 7.4845 7.51046 7.85834 7.51028V7.48917Z"/><path fill="#fff" d="M14.8936 7.09334C14.9 7.21465 14.9 7.33621 14.8936 7.45751C14.9949 7.47357 15.0972 7.48238 15.1997 7.4839H15.3C15.6722 7.46405 16.0329 7.34817 16.347 7.14754C16.6611 6.9469 16.918 6.66835 17.0925 6.339C17.267 6.00965 17.3532 5.64073 17.3428 5.26815C17.3324 4.89557 17.2257 4.53203 17.0331 4.21292C16.8405 3.89381 16.5686 3.63001 16.2438 3.44721C15.919 3.2644 15.5524 3.16881 15.1796 3.16975C14.8069 3.17068 14.4408 3.26812 14.1169 3.45256C13.793 3.637 13.5224 3.90216 13.3314 4.22223C13.8091 4.53411 14.2019 4.9597 14.4745 5.4608C14.7472 5.96191 14.8912 6.52286 14.8936 7.09334V7.09334Z"/><path fill="#fff" d="M11.4314 9.45777C12.7343 9.45777 13.7906 8.40154 13.7906 7.09861C13.7906 5.79568 12.7343 4.73944 11.4314 4.73944C10.1285 4.73944 9.07222 5.79568 9.07222 7.09861C9.07222 8.40154 10.1285 9.45777 11.4314 9.45777Z"/><path fill="#fff" d="M11.5581 10.7139C10.8688 10.6861 10.181 10.798 9.53616 11.0429C8.89128 11.2878 8.3026 11.6606 7.80556 12.1389L7.67361 12.2867V15.6275C7.67567 15.7363 7.69915 15.8437 7.74271 15.9434C7.78626 16.0432 7.84904 16.1334 7.92746 16.2088C8.00588 16.2843 8.0984 16.3436 8.19974 16.3833C8.30107 16.423 8.40924 16.4424 8.51806 16.4403H14.5822C14.691 16.4424 14.7992 16.423 14.9005 16.3833C15.0019 16.3436 15.0944 16.2843 15.1728 16.2088C15.2512 16.1334 15.314 16.0432 15.3576 15.9434C15.4011 15.8437 15.4246 15.7363 15.4267 15.6275V12.2972L15.3 12.1389C14.8062 11.6591 14.2196 11.2852 13.5761 11.0402C12.9327 10.7952 12.2459 10.6841 11.5581 10.7139V10.7139Z"/></g><defs><filter id="filter0_d" width="27" height="27" x="-2" y="0" color-interpolation-filters="sRGB" filterUnits="userSpaceOnUse"><feFlood flood-opacity="0" result="BackgroundImageFix"/><feColorMatrix in="SourceAlpha" type="matrix" values="0 0 0 0 0 0 0 0 0 0 0 0 0 0 0 0 0 0 127 0"/><feOffset dy="4"/><feGaussianBlur stdDeviation="2"/><feColorMatrix type="matrix" values="0 0 0 0 0 0 0 0 0 0 0 0 0 0 0 0 0 0 0.25 0"/><feBlend in2="BackgroundImageFix" mode="normal" result="effect1_dropShadow"/><feBlend in="SourceGraphic" in2="effect1_dropShadow" mode="normal" result="shape"/></filter></defs></svg>