<svg width="20" height="20" viewBox="0 0 20 20" fill="none" xmlns="http://www.w3.org/2000/svg">
<path d="M1.91 7.38299C2.2795 6.24207 2.88649 5.19236 3.691 4.30299C3.7575 4.2295 3.84434 4.17744 3.94048 4.1534C4.03663 4.12936 4.13775 4.13444 4.231 4.16799L6.14901 4.85399C6.28555 4.90275 6.43106 4.92123 6.57546 4.90816C6.71985 4.89509 6.85968 4.85077 6.98524 4.77829C7.11081 4.7058 7.21911 4.60688 7.30265 4.48837C7.38618 4.36987 7.44294 4.23461 7.46901 4.09199L7.83401 2.08599C7.85168 1.98834 7.89802 1.89816 7.96711 1.82692C8.03621 1.75569 8.12494 1.70663 8.22201 1.68599C9.39386 1.43638 10.6052 1.43638 11.777 1.68599C11.8741 1.70663 11.9628 1.75569 12.0319 1.82692C12.101 1.89816 12.1473 1.98834 12.165 2.08599L12.531 4.09199C12.5571 4.23461 12.6138 4.36987 12.6974 4.48837C12.7809 4.60688 12.8892 4.7058 13.0148 4.77829C13.1403 4.85077 13.2802 4.89509 13.4246 4.90816C13.569 4.92123 13.7145 4.90275 13.851 4.85399L15.77 4.16799C15.8632 4.13478 15.9642 4.12997 16.0601 4.15418C16.1561 4.17839 16.2427 4.23053 16.309 4.30399C17.113 5.19316 17.7197 6.24251 18.089 7.38299C18.1195 7.47719 18.1213 7.57833 18.0943 7.67357C18.0672 7.76882 18.0125 7.85389 17.937 7.91799L16.382 9.23799C16.2715 9.33187 16.1828 9.44864 16.122 9.58021C16.0611 9.71179 16.0296 9.85502 16.0296 9.99999C16.0296 10.145 16.0611 10.2882 16.122 10.4198C16.1828 10.5513 16.2715 10.6681 16.382 10.762L17.937 12.082C18.0125 12.1461 18.0672 12.2312 18.0943 12.3264C18.1213 12.4216 18.1195 12.5228 18.089 12.617C17.7198 13.7578 17.1132 14.8075 16.309 15.697C16.2425 15.7705 16.1557 15.8225 16.0595 15.8466C15.9634 15.8706 15.8623 15.8655 15.769 15.832L13.851 15.146C13.7145 15.0972 13.569 15.0787 13.4246 15.0918C13.2802 15.1049 13.1403 15.1492 13.0148 15.2217C12.8892 15.2942 12.7809 15.3931 12.6974 15.5116C12.6138 15.6301 12.5571 15.7654 12.531 15.908L12.164 17.915C12.1462 18.0123 12.0999 18.1022 12.0311 18.1732C11.9622 18.2442 11.8738 18.2932 11.777 18.314C10.6052 18.5637 9.39385 18.5637 8.22201 18.314C8.12494 18.2933 8.03621 18.2443 7.96711 18.1731C7.89802 18.1018 7.85168 18.0116 7.83401 17.914L7.46901 15.908C7.44294 15.7654 7.38618 15.6301 7.30265 15.5116C7.21911 15.3931 7.11081 15.2942 6.98524 15.2217C6.85968 15.1492 6.71985 15.1049 6.57546 15.0918C6.43106 15.0787 6.28555 15.0972 6.14901 15.146L4.23001 15.832C4.13679 15.8652 4.03581 15.87 3.93986 15.8458C3.84391 15.8216 3.75731 15.7695 3.691 15.696C2.88695 14.8068 2.28031 13.7575 1.91101 12.617C1.88052 12.5228 1.87869 12.4216 1.90575 12.3264C1.93281 12.2312 1.98754 12.1461 2.063 12.082L3.61801 10.762C3.72847 10.6681 3.8172 10.5513 3.87806 10.4198C3.93891 10.2882 3.97043 10.145 3.97043 9.99999C3.97043 9.85502 3.93891 9.71179 3.87806 9.58021C3.8172 9.44864 3.72847 9.33187 3.61801 9.23799L2.063 7.91799C1.98754 7.85389 1.93281 7.76882 1.90575 7.67357C1.87869 7.57833 1.88052 7.47719 1.91101 7.38299H1.91ZM2.971 7.37699L4.265 8.47499C4.48628 8.66274 4.66404 8.8964 4.78596 9.15974C4.90788 9.42308 4.97103 9.7098 4.97103 9.99999C4.97103 10.2902 4.90788 10.5769 4.78596 10.8402C4.66404 11.1036 4.48628 11.3372 4.265 11.525L2.971 12.623C3.263 13.405 3.68501 14.133 4.21601 14.775L5.812 14.205C6.08516 14.1075 6.37626 14.0705 6.66511 14.0967C6.95396 14.123 7.23366 14.2117 7.4848 14.3567C7.73595 14.5018 7.95254 14.6998 8.11955 14.9369C8.28657 15.174 8.4 15.4447 8.452 15.73L8.75701 17.398C9.57966 17.5351 10.4193 17.5351 11.242 17.398L11.547 15.728C11.5991 15.4427 11.7127 15.1722 11.8797 14.9352C12.0468 14.6982 12.2634 14.5004 12.5145 14.3554C12.7657 14.2104 13.0453 14.1218 13.3341 14.0957C13.6229 14.0695 13.9139 14.1065 14.187 14.204L15.784 14.775C16.316 14.132 16.7368 13.4047 17.029 12.623L15.735 11.525C15.5134 11.3374 15.3354 11.1038 15.2133 10.8405C15.0911 10.5771 15.0279 10.2903 15.0279 9.99999C15.0279 9.70969 15.0911 9.42287 15.2133 9.15951C15.3354 8.89614 15.5134 8.66255 15.735 8.47499L17.029 7.37699C16.7368 6.59531 16.316 5.86796 15.784 5.22499L14.188 5.79499C13.9149 5.8925 13.6239 5.92947 13.3351 5.90333C13.0463 5.87718 12.7667 5.78855 12.5155 5.64358C12.2644 5.49861 12.0478 5.30076 11.8807 5.06375C11.7137 4.82674 11.6001 4.55624 11.548 4.27099L11.242 2.60199C10.4193 2.46483 9.57966 2.46483 8.75701 2.60199L8.45301 4.27099C8.401 4.55633 8.28756 4.82694 8.12055 5.06407C7.95354 5.3012 7.73695 5.49916 7.4858 5.64424C7.23466 5.78931 6.95496 5.87803 6.66611 5.90423C6.37726 5.93044 6.08616 5.8935 5.81301 5.79599L4.21601 5.22499C3.68403 5.86797 3.26324 6.59532 2.971 7.37699V7.37699ZM7.50001 9.99999C7.50001 9.33695 7.7634 8.70106 8.23224 8.23222C8.70108 7.76338 9.33696 7.49999 10 7.49999C10.663 7.49999 11.2989 7.76338 11.7678 8.23222C12.2366 8.70106 12.5 9.33695 12.5 9.99999C12.5 10.663 12.2366 11.2989 11.7678 11.7678C11.2989 12.2366 10.663 12.5 10 12.5C9.33696 12.5 8.70108 12.2366 8.23224 11.7678C7.7634 11.2989 7.50001 10.663 7.50001 9.99999ZM8.50001 9.99999C8.50001 10.3978 8.65804 10.7793 8.93934 11.0606C9.22065 11.342 9.60218 11.5 10 11.5C10.3978 11.5 10.7794 11.342 11.0607 11.0606C11.342 10.7793 11.5 10.3978 11.5 9.99999C11.5 9.60216 11.342 9.22063 11.0607 8.93933C10.7794 8.65802 10.3978 8.49999 10 8.49999C9.60218 8.49999 9.22065 8.65802 8.93934 8.93933C8.65804 9.22063 8.50001 9.60216 8.50001 9.99999V9.99999Z" fill="black"/>
</svg>
