<svg xmlns="http://www.w3.org/2000/svg" width="20" height="21" fill="none" viewBox="0 0 20 21"><g filter="url(#filter0_d)"><path fill="#000" d="M15.2891 10.15C14.9944 9.45183 14.5666 8.81766 14.0297 8.28281C13.4945 7.74642 12.8604 7.31876 12.1625 7.02344C12.1563 7.02031 12.15 7.01875 12.1438 7.01562C13.1172 6.3125 13.75 5.16719 13.75 3.875C13.75 1.73438 12.0157 0 9.87504 0C7.73441 0 6.00004 1.73438 6.00004 3.875C6.00004 5.16719 6.63285 6.3125 7.60629 7.01719C7.60004 7.02031 7.59379 7.02187 7.58754 7.025C6.88754 7.32031 6.25941 7.74375 5.72035 8.28438C5.18396 8.81964 4.7563 9.4537 4.46098 10.1516C4.17085 10.8348 4.01439 11.5673 4.00004 12.3094C3.99962 12.3261 4.00255 12.3426 4.00864 12.3582C4.01474 12.3737 4.02388 12.3879 4.03553 12.3998C4.04718 12.4117 4.0611 12.4212 4.07647 12.4277C4.09184 12.4342 4.10836 12.4375 4.12504 12.4375H5.06254C5.13129 12.4375 5.18598 12.3828 5.18754 12.3156C5.21879 11.1094 5.70316 9.97969 6.55941 9.12344C7.44535 8.2375 8.62191 7.75 9.87504 7.75C11.1282 7.75 12.3047 8.2375 13.1907 9.12344C14.0469 9.97969 14.5313 11.1094 14.5625 12.3156C14.5641 12.3844 14.6188 12.4375 14.6875 12.4375H15.625C15.6417 12.4375 15.6582 12.4342 15.6736 12.4277C15.689 12.4212 15.7029 12.4117 15.7146 12.3998C15.7262 12.3879 15.7353 12.3737 15.7414 12.3582C15.7475 12.3426 15.7505 12.3261 15.75 12.3094C15.7344 11.5625 15.5797 10.8359 15.2891 10.15V10.15ZM9.87504 6.5625C9.15785 6.5625 8.48285 6.28281 7.97504 5.775C7.46723 5.26719 7.18754 4.59219 7.18754 3.875C7.18754 3.15781 7.46723 2.48281 7.97504 1.975C8.48285 1.46719 9.15785 1.1875 9.87504 1.1875C10.5922 1.1875 11.2672 1.46719 11.775 1.975C12.2829 2.48281 12.5625 3.15781 12.5625 3.875C12.5625 4.59219 12.2829 5.26719 11.775 5.775C11.2672 6.28281 10.5922 6.5625 9.87504 6.5625Z"/></g><defs><filter id="filter0_d" width="19.75" height="20.438" x="0" y="0" color-interpolation-filters="sRGB" filterUnits="userSpaceOnUse"><feFlood flood-opacity="0" result="BackgroundImageFix"/><feColorMatrix in="SourceAlpha" type="matrix" values="0 0 0 0 0 0 0 0 0 0 0 0 0 0 0 0 0 0 127 0"/><feOffset dy="4"/><feGaussianBlur stdDeviation="2"/><feColorMatrix type="matrix" values="0 0 0 0 0 0 0 0 0 0 0 0 0 0 0 0 0 0 0.25 0"/><feBlend in2="BackgroundImageFix" mode="normal" result="effect1_dropShadow"/><feBlend in="SourceGraphic" in2="effect1_dropShadow" mode="normal" result="shape"/></filter></defs></svg>